<?xml version="1.0" encoding="UTF-8" standalone="no"?>
<!DOCTYPE svg PUBLIC "-//W3C//DTD SVG 1.1//EN"
 "http://www.w3.org/Graphics/SVG/1.1/DTD/svg11.dtd">
<!-- Generated by graphviz version 2.42.4 (0)
 -->
<!-- Title: G Pages: 1 -->
<svg width="1232pt" height="968pt"
 viewBox="0.00 0.00 1231.70 968.20" xmlns="http://www.w3.org/2000/svg" xmlns:xlink="http://www.w3.org/1999/xlink">
<g id="graph0" class="graph" transform="scale(1 1) rotate(0) translate(21.6 946.6)">
<title>G</title>
<polygon fill="white" stroke="transparent" points="-21.6,21.6 -21.6,-946.6 1210.1,-946.6 1210.1,21.6 -21.6,21.6"/>
<text text-anchor="middle" x="594.25" y="-909.8" font-family="Helvetica,sans-Serif" font-size="14.00">AutoCare AF&#45;3 &#45; domenski UML (sazeti prikaz)</text>
<!-- User -->
<g id="node1" class="node">
<title>User</title>
<path fill="#f4f7fb" stroke="#176b87" d="M340,-642.5C340,-642.5 185,-642.5 185,-642.5 179,-642.5 173,-636.5 173,-630.5 173,-630.5 173,-493.5 173,-493.5 173,-487.5 179,-481.5 185,-481.5 185,-481.5 340,-481.5 340,-481.5 346,-481.5 352,-487.5 352,-493.5 352,-493.5 352,-630.5 352,-630.5 352,-636.5 346,-642.5 340,-642.5"/>
<text text-anchor="middle" x="262.5" y="-618.3" font-family="Helvetica,sans-Serif" font-size="14.00">User</text>
<text text-anchor="middle" x="262.5" y="-603.3" font-family="Helvetica,sans-Serif" font-size="14.00">&#45;&#45;&#45;&#45;&#45;&#45;&#45;&#45;&#45;&#45;&#45;&#45;&#45;&#45;&#45;&#45;&#45;&#45;&#45;&#45;&#45;&#45;&#45;&#45;</text>
<text text-anchor="middle" x="262.5" y="-588.3" font-family="Helvetica,sans-Serif" font-size="14.00">id: Long</text>
<text text-anchor="middle" x="262.5" y="-573.3" font-family="Helvetica,sans-Serif" font-size="14.00">version: long</text>
<text text-anchor="middle" x="262.5" y="-558.3" font-family="Helvetica,sans-Serif" font-size="14.00">name: String</text>
<text text-anchor="middle" x="262.5" y="-543.3" font-family="Helvetica,sans-Serif" font-size="14.00">email: String</text>
<text text-anchor="middle" x="262.5" y="-528.3" font-family="Helvetica,sans-Serif" font-size="14.00">passwordHash: String</text>
<text text-anchor="middle" x="262.5" y="-513.3" font-family="Helvetica,sans-Serif" font-size="14.00">&#45;&#45;&#45;&#45;&#45;&#45;&#45;&#45;&#45;&#45;&#45;&#45;&#45;&#45;&#45;&#45;&#45;&#45;&#45;&#45;&#45;&#45;&#45;&#45;</text>
<text text-anchor="middle" x="262.5" y="-498.3" font-family="Helvetica,sans-Serif" font-size="14.00">+ activate(vehicle)</text>
</g>
<!-- Vehicle -->
<g id="node2" class="node">
<title>Vehicle</title>
<path fill="#f4f7fb" stroke="#176b87" d="M165,-390.5C165,-390.5 12,-390.5 12,-390.5 6,-390.5 0,-384.5 0,-378.5 0,-378.5 0,-256.5 0,-256.5 0,-250.5 6,-244.5 12,-244.5 12,-244.5 165,-244.5 165,-244.5 171,-244.5 177,-250.5 177,-256.5 177,-256.5 177,-378.5 177,-378.5 177,-384.5 171,-390.5 165,-390.5"/>
<text text-anchor="middle" x="88.5" y="-366.3" font-family="Helvetica,sans-Serif" font-size="14.00">Vehicle</text>
<text text-anchor="middle" x="88.5" y="-351.3" font-family="Helvetica,sans-Serif" font-size="14.00">&#45;&#45;&#45;&#45;&#45;&#45;&#45;&#45;&#45;&#45;&#45;&#45;&#45;&#45;&#45;&#45;&#45;&#45;&#45;&#45;&#45;&#45;&#45;&#45;</text>
<text text-anchor="middle" x="88.5" y="-336.3" font-family="Helvetica,sans-Serif" font-size="14.00">id: Long</text>
<text text-anchor="middle" x="88.5" y="-321.3" font-family="Helvetica,sans-Serif" font-size="14.00">version: long</text>
<text text-anchor="middle" x="88.5" y="-306.3" font-family="Helvetica,sans-Serif" font-size="14.00">year: int</text>
<text text-anchor="middle" x="88.5" y="-291.3" font-family="Helvetica,sans-Serif" font-size="14.00">currentMileage: int</text>
<text text-anchor="middle" x="88.5" y="-276.3" font-family="Helvetica,sans-Serif" font-size="14.00">&#45;&#45;&#45;&#45;&#45;&#45;&#45;&#45;&#45;&#45;&#45;&#45;&#45;&#45;&#45;&#45;&#45;&#45;&#45;&#45;&#45;&#45;&#45;&#45;</text>
<text text-anchor="middle" x="88.5" y="-261.3" font-family="Helvetica,sans-Serif" font-size="14.00">+ updateMileage(km)</text>
</g>
<!-- User&#45;&gt;Vehicle -->
<g id="edge1" class="edge">
<title>User&#45;&gt;Vehicle</title>
<path fill="none" stroke="#526477" d="M172.78,-495.05C143.02,-472.82 116.79,-452.65 114.5,-449 105.42,-434.52 99.42,-417.51 95.48,-400.64"/>
<polygon fill="#526477" stroke="#526477" points="98.88,-399.8 93.38,-390.75 92.03,-401.25 98.88,-399.8"/>
<text text-anchor="middle" x="167.5" y="-441" font-family="Helvetica,sans-Serif" font-size="10.00">activeVehicle / to&#45;one</text>
</g>
<!-- Vehicle&#45;&gt;User -->
<g id="edge2" class="edge">
<title>Vehicle&#45;&gt;User</title>
<path fill="none" stroke="#526477" d="M168.58,-390.64C177.28,-398.25 186.04,-405.82 194.5,-413 208,-424.45 215.62,-423.31 225.5,-438 232.42,-448.29 238.09,-459.92 242.71,-471.82"/>
<polygon fill="#526477" stroke="#526477" points="239.48,-473.2 246.19,-481.39 246.06,-470.8 239.48,-473.2"/>
<text text-anchor="middle" x="267" y="-441" font-family="Helvetica,sans-Serif" font-size="10.00">owner / to&#45;one</text>
</g>
<!-- VehicleVariant -->
<g id="node3" class="node">
<title>VehicleVariant</title>
<path fill="#f4f7fb" stroke="#176b87" d="M355.5,-161C355.5,-161 217.5,-161 217.5,-161 211.5,-161 205.5,-155 205.5,-149 205.5,-149 205.5,-12 205.5,-12 205.5,-6 211.5,0 217.5,0 217.5,0 355.5,0 355.5,0 361.5,0 367.5,-6 367.5,-12 367.5,-12 367.5,-149 367.5,-149 367.5,-155 361.5,-161 355.5,-161"/>
<text text-anchor="middle" x="286.5" y="-136.8" font-family="Helvetica,sans-Serif" font-size="14.00">VehicleVariant</text>
<text text-anchor="middle" x="286.5" y="-121.8" font-family="Helvetica,sans-Serif" font-size="14.00">&#45;&#45;&#45;&#45;&#45;&#45;&#45;&#45;&#45;&#45;&#45;&#45;&#45;&#45;&#45;&#45;&#45;&#45;&#45;&#45;&#45;&#45;&#45;&#45;</text>
<text text-anchor="middle" x="286.5" y="-106.8" font-family="Helvetica,sans-Serif" font-size="14.00">id: Long</text>
<text text-anchor="middle" x="286.5" y="-91.8" font-family="Helvetica,sans-Serif" font-size="14.00">code: String</text>
<text text-anchor="middle" x="286.5" y="-76.8" font-family="Helvetica,sans-Serif" font-size="14.00">make: String</text>
<text text-anchor="middle" x="286.5" y="-61.8" font-family="Helvetica,sans-Serif" font-size="14.00">model: String</text>
<text text-anchor="middle" x="286.5" y="-46.8" font-family="Helvetica,sans-Serif" font-size="14.00">generation: String</text>
<text text-anchor="middle" x="286.5" y="-31.8" font-family="Helvetica,sans-Serif" font-size="14.00">engineLabel: String</text>
<text text-anchor="middle" x="286.5" y="-16.8" font-family="Helvetica,sans-Serif" font-size="14.00">bodyType: String</text>
</g>
<!-- Vehicle&#45;&gt;VehicleVariant -->
<g id="edge3" class="edge">
<title>Vehicle&#45;&gt;VehicleVariant</title>
<path fill="none" stroke="#526477" d="M149.25,-244.4C169.34,-220.55 191.91,-193.76 212.86,-168.9"/>
<polygon fill="#526477" stroke="#526477" points="215.54,-171.15 219.3,-161.25 210.18,-166.64 215.54,-171.15"/>
<text text-anchor="middle" x="231.5" y="-189" font-family="Helvetica,sans-Serif" font-size="10.00">variant / to&#45;one</text>
</g>
<!-- WorkDefinition -->
<g id="node4" class="node">
<title>WorkDefinition</title>
<path fill="#f4f7fb" stroke="#176b87" d="M711.5,-153.5C711.5,-153.5 469.5,-153.5 469.5,-153.5 463.5,-153.5 457.5,-147.5 457.5,-141.5 457.5,-141.5 457.5,-19.5 457.5,-19.5 457.5,-13.5 463.5,-7.5 469.5,-7.5 469.5,-7.5 711.5,-7.5 711.5,-7.5 717.5,-7.5 723.5,-13.5 723.5,-19.5 723.5,-19.5 723.5,-141.5 723.5,-141.5 723.5,-147.5 717.5,-153.5 711.5,-153.5"/>
<text text-anchor="middle" x="590.5" y="-129.3" font-family="Helvetica,sans-Serif" font-size="14.00">WorkDefinition</text>
<text text-anchor="middle" x="590.5" y="-114.3" font-family="Helvetica,sans-Serif" font-size="14.00">&#45;&#45;&#45;&#45;&#45;&#45;&#45;&#45;&#45;&#45;&#45;&#45;&#45;&#45;&#45;&#45;&#45;&#45;&#45;&#45;&#45;&#45;&#45;&#45;</text>
<text text-anchor="middle" x="590.5" y="-99.3" font-family="Helvetica,sans-Serif" font-size="14.00">id: Long</text>
<text text-anchor="middle" x="590.5" y="-84.3" font-family="Helvetica,sans-Serif" font-size="14.00">code: String</text>
<text text-anchor="middle" x="590.5" y="-69.3" font-family="Helvetica,sans-Serif" font-size="14.00">name: String</text>
<text text-anchor="middle" x="590.5" y="-54.3" font-family="Helvetica,sans-Serif" font-size="14.00">category: WorkCategory</text>
<text text-anchor="middle" x="590.5" y="-39.3" font-family="Helvetica,sans-Serif" font-size="14.00">defaultEstimatedPrice: BigDecimal</text>
<text text-anchor="middle" x="590.5" y="-24.3" font-family="Helvetica,sans-Serif" font-size="14.00">estimateNote: String</text>
</g>
<!-- VehicleWorkRule -->
<g id="node5" class="node">
<title>VehicleWorkRule</title>
<path fill="#f4f7fb" stroke="#176b87" d="M424,-413C424,-413 225,-413 225,-413 219,-413 213,-407 213,-401 213,-401 213,-234 213,-234 213,-228 219,-222 225,-222 225,-222 424,-222 424,-222 430,-222 436,-228 436,-234 436,-234 436,-401 436,-401 436,-407 430,-413 424,-413"/>
<text text-anchor="middle" x="324.5" y="-388.8" font-family="Helvetica,sans-Serif" font-size="14.00">VehicleWorkRule</text>
<text text-anchor="middle" x="324.5" y="-373.8" font-family="Helvetica,sans-Serif" font-size="14.00">&#45;&#45;&#45;&#45;&#45;&#45;&#45;&#45;&#45;&#45;&#45;&#45;&#45;&#45;&#45;&#45;&#45;&#45;&#45;&#45;&#45;&#45;&#45;&#45;</text>
<text text-anchor="middle" x="324.5" y="-358.8" font-family="Helvetica,sans-Serif" font-size="14.00">id: Long</text>
<text text-anchor="middle" x="324.5" y="-343.8" font-family="Helvetica,sans-Serif" font-size="14.00">scheduleKind: ScheduleKind</text>
<text text-anchor="middle" x="324.5" y="-328.8" font-family="Helvetica,sans-Serif" font-size="14.00">intervalKm: Integer</text>
<text text-anchor="middle" x="324.5" y="-313.8" font-family="Helvetica,sans-Serif" font-size="14.00">intervalMonths: Integer</text>
<text text-anchor="middle" x="324.5" y="-298.8" font-family="Helvetica,sans-Serif" font-size="14.00">estimatedPrice: BigDecimal</text>
<text text-anchor="middle" x="324.5" y="-283.8" font-family="Helvetica,sans-Serif" font-size="14.00">intervalSource: String</text>
<text text-anchor="middle" x="324.5" y="-268.8" font-family="Helvetica,sans-Serif" font-size="14.00">estimateNote: String</text>
<text text-anchor="middle" x="324.5" y="-253.8" font-family="Helvetica,sans-Serif" font-size="14.00">&#45;&#45;&#45;&#45;&#45;&#45;&#45;&#45;&#45;&#45;&#45;&#45;&#45;&#45;&#45;&#45;&#45;&#45;&#45;&#45;&#45;&#45;&#45;&#45;</text>
<text text-anchor="middle" x="324.5" y="-238.8" font-family="Helvetica,sans-Serif" font-size="14.00">+ revise(...)</text>
</g>
<!-- VehicleWorkRule&#45;&gt;VehicleVariant -->
<g id="edge4" class="edge">
<title>VehicleWorkRule&#45;&gt;VehicleVariant</title>
<path fill="none" stroke="#526477" d="M309.21,-221.93C306.51,-205.24 303.71,-187.91 301.03,-171.36"/>
<polygon fill="#526477" stroke="#526477" points="304.43,-170.48 299.38,-161.17 297.52,-171.6 304.43,-170.48"/>
<text text-anchor="middle" x="342.5" y="-189" font-family="Helvetica,sans-Serif" font-size="10.00">variant / to&#45;one</text>
</g>
<!-- VehicleWorkRule&#45;&gt;WorkDefinition -->
<g id="edge5" class="edge">
<title>VehicleWorkRule&#45;&gt;WorkDefinition</title>
<path fill="none" stroke="#526477" d="M431.54,-221.93C454.63,-201.54 478.8,-180.18 501.13,-160.45"/>
<polygon fill="#526477" stroke="#526477" points="503.45,-163.08 508.63,-153.83 498.82,-157.83 503.45,-163.08"/>
<text text-anchor="middle" x="498" y="-189" font-family="Helvetica,sans-Serif" font-size="10.00">work / to&#45;one</text>
</g>
<!-- ServiceRecord -->
<g id="node6" class="node">
<title>ServiceRecord</title>
<path fill="#f4f7fb" stroke="#176b87" d="M591.5,-650C591.5,-650 423.5,-650 423.5,-650 417.5,-650 411.5,-644 411.5,-638 411.5,-638 411.5,-486 411.5,-486 411.5,-480 417.5,-474 423.5,-474 423.5,-474 591.5,-474 591.5,-474 597.5,-474 603.5,-480 603.5,-486 603.5,-486 603.5,-638 603.5,-638 603.5,-644 597.5,-650 591.5,-650"/>
<text text-anchor="middle" x="507.5" y="-625.8" font-family="Helvetica,sans-Serif" font-size="14.00">ServiceRecord</text>
<text text-anchor="middle" x="507.5" y="-610.8" font-family="Helvetica,sans-Serif" font-size="14.00">&#45;&#45;&#45;&#45;&#45;&#45;&#45;&#45;&#45;&#45;&#45;&#45;&#45;&#45;&#45;&#45;&#45;&#45;&#45;&#45;&#45;&#45;&#45;&#45;</text>
<text text-anchor="middle" x="507.5" y="-595.8" font-family="Helvetica,sans-Serif" font-size="14.00">id: Long</text>
<text text-anchor="middle" x="507.5" y="-580.8" font-family="Helvetica,sans-Serif" font-size="14.00">requestKey: String</text>
<text text-anchor="middle" x="507.5" y="-565.8" font-family="Helvetica,sans-Serif" font-size="14.00">date: LocalDate</text>
<text text-anchor="middle" x="507.5" y="-550.8" font-family="Helvetica,sans-Serif" font-size="14.00">mileage: int</text>
<text text-anchor="middle" x="507.5" y="-535.8" font-family="Helvetica,sans-Serif" font-size="14.00">note: String</text>
<text text-anchor="middle" x="507.5" y="-520.8" font-family="Helvetica,sans-Serif" font-size="14.00">&#45;&#45;&#45;&#45;&#45;&#45;&#45;&#45;&#45;&#45;&#45;&#45;&#45;&#45;&#45;&#45;&#45;&#45;&#45;&#45;&#45;&#45;&#45;&#45;</text>
<text text-anchor="middle" x="507.5" y="-505.8" font-family="Helvetica,sans-Serif" font-size="14.00">+ addItem(work, price)</text>
<text text-anchor="middle" x="507.5" y="-490.8" font-family="Helvetica,sans-Serif" font-size="14.00">+ total(): CostSummary</text>
</g>
<!-- ServiceRecord&#45;&gt;Vehicle -->
<g id="edge6" class="edge">
<title>ServiceRecord&#45;&gt;Vehicle</title>
<path fill="none" stroke="#526477" d="M411.42,-500.3C397.37,-491.46 383.07,-482.49 369.5,-474 343.78,-457.91 339.64,-449.34 311.5,-438 262.18,-418.13 241.92,-437.05 194.5,-413 185.42,-408.39 176.51,-402.82 167.95,-396.7"/>
<polygon fill="#526477" stroke="#526477" points="169.97,-393.84 159.86,-390.68 165.8,-399.46 169.97,-393.84"/>
<text text-anchor="middle" x="371.5" y="-441" font-family="Helvetica,sans-Serif" font-size="10.00">vehicle / to&#45;one</text>
</g>
<!-- ServiceItem -->
<g id="node7" class="node">
<title>ServiceItem</title>
<path fill="#f4f7fb" stroke="#176b87" d="M649,-360.5C649,-360.5 484,-360.5 484,-360.5 478,-360.5 472,-354.5 472,-348.5 472,-348.5 472,-286.5 472,-286.5 472,-280.5 478,-274.5 484,-274.5 484,-274.5 649,-274.5 649,-274.5 655,-274.5 661,-280.5 661,-286.5 661,-286.5 661,-348.5 661,-348.5 661,-354.5 655,-360.5 649,-360.5"/>
<text text-anchor="middle" x="566.5" y="-336.3" font-family="Helvetica,sans-Serif" font-size="14.00">ServiceItem</text>
<text text-anchor="middle" x="566.5" y="-321.3" font-family="Helvetica,sans-Serif" font-size="14.00">&#45;&#45;&#45;&#45;&#45;&#45;&#45;&#45;&#45;&#45;&#45;&#45;&#45;&#45;&#45;&#45;&#45;&#45;&#45;&#45;&#45;&#45;&#45;&#45;</text>
<text text-anchor="middle" x="566.5" y="-306.3" font-family="Helvetica,sans-Serif" font-size="14.00">id: Long</text>
<text text-anchor="middle" x="566.5" y="-291.3" font-family="Helvetica,sans-Serif" font-size="14.00">actualPrice: BigDecimal</text>
</g>
<!-- ServiceRecord&#45;&gt;ServiceItem -->
<g id="edge12" class="edge">
<title>ServiceRecord&#45;&gt;ServiceItem</title>
<path fill="none" stroke="#526477" d="M531.61,-461.91C540.22,-426.51 549.47,-388.5 556.28,-360.52"/>
<polygon fill="#526477" stroke="#526477" points="531.55,-462.13 534.02,-468.91 528.72,-473.79 526.25,-467.02 531.55,-462.13"/>
<text text-anchor="middle" x="595.5" y="-441" font-family="Helvetica,sans-Serif" font-size="10.00">items 1..* / kompozicija</text>
</g>
<!-- ServiceItem&#45;&gt;WorkDefinition -->
<g id="edge7" class="edge">
<title>ServiceItem&#45;&gt;WorkDefinition</title>
<path fill="none" stroke="#526477" d="M570.79,-274.49C573.92,-243.84 578.27,-201.3 582.08,-163.96"/>
<polygon fill="#526477" stroke="#526477" points="585.6,-163.88 583.14,-153.58 578.64,-163.17 585.6,-163.88"/>
<text text-anchor="middle" x="612" y="-189" font-family="Helvetica,sans-Serif" font-size="10.00">work / to&#45;one</text>
</g>
<!-- Problem -->
<g id="node8" class="node">
<title>Problem</title>
<path fill="#f4f7fb" stroke="#176b87" d="M600,-902C600,-902 415,-902 415,-902 409,-902 403,-896 403,-890 403,-890 403,-723 403,-723 403,-717 409,-711 415,-711 415,-711 600,-711 600,-711 606,-711 612,-717 612,-723 612,-723 612,-890 612,-890 612,-896 606,-902 600,-902"/>
<text text-anchor="middle" x="507.5" y="-877.8" font-family="Helvetica,sans-Serif" font-size="14.00">Problem</text>
<text text-anchor="middle" x="507.5" y="-862.8" font-family="Helvetica,sans-Serif" font-size="14.00">&#45;&#45;&#45;&#45;&#45;&#45;&#45;&#45;&#45;&#45;&#45;&#45;&#45;&#45;&#45;&#45;&#45;&#45;&#45;&#45;&#45;&#45;&#45;&#45;</text>
<text text-anchor="middle" x="507.5" y="-847.8" font-family="Helvetica,sans-Serif" font-size="14.00">id: Long</text>
<text text-anchor="middle" x="507.5" y="-832.8" font-family="Helvetica,sans-Serif" font-size="14.00">version: long</text>
<text text-anchor="middle" x="507.5" y="-817.8" font-family="Helvetica,sans-Serif" font-size="14.00">requestKey: String</text>
<text text-anchor="middle" x="507.5" y="-802.8" font-family="Helvetica,sans-Serif" font-size="14.00">description: String</text>
<text text-anchor="middle" x="507.5" y="-787.8" font-family="Helvetica,sans-Serif" font-size="14.00">status: ProblemStatus</text>
<text text-anchor="middle" x="507.5" y="-772.8" font-family="Helvetica,sans-Serif" font-size="14.00">createdAt: LocalDateTime</text>
<text text-anchor="middle" x="507.5" y="-757.8" font-family="Helvetica,sans-Serif" font-size="14.00">matchPercent: BigDecimal</text>
<text text-anchor="middle" x="507.5" y="-742.8" font-family="Helvetica,sans-Serif" font-size="14.00">&#45;&#45;&#45;&#45;&#45;&#45;&#45;&#45;&#45;&#45;&#45;&#45;&#45;&#45;&#45;&#45;&#45;&#45;&#45;&#45;&#45;&#45;&#45;&#45;</text>
<text text-anchor="middle" x="507.5" y="-727.8" font-family="Helvetica,sans-Serif" font-size="14.00">+ resolve(service)</text>
</g>
<!-- Problem&#45;&gt;Vehicle -->
<g id="edge8" class="edge">
<title>Problem&#45;&gt;Vehicle</title>
<path fill="none" stroke="#526477" d="M402.94,-800.14C301.12,-788.69 151.39,-753.94 78.5,-650 27.75,-577.62 41.47,-472.83 60.58,-400.53"/>
<polygon fill="#526477" stroke="#526477" points="64.05,-401.12 63.31,-390.55 57.3,-399.28 64.05,-401.12"/>
<text text-anchor="middle" x="116.5" y="-559.5" font-family="Helvetica,sans-Serif" font-size="10.00">vehicle / to&#45;one</text>
</g>
<!-- Problem&#45;&gt;WorkDefinition -->
<g id="edge9" class="edge">
<title>Problem&#45;&gt;WorkDefinition</title>
<path fill="none" stroke="#526477" d="M612.22,-731.17C700.77,-660.97 820.51,-546.68 867.5,-413 895.65,-332.92 911.92,-294.34 867.5,-222 837.55,-173.23 784.82,-140.74 733.34,-119.43"/>
<polygon fill="#526477" stroke="#526477" points="734.33,-116.06 723.75,-115.58 731.72,-122.55 734.33,-116.06"/>
<text text-anchor="middle" x="920" y="-441" font-family="Helvetica,sans-Serif" font-size="10.00">suggestedRepair / to&#45;one</text>
</g>
<!-- Problem&#45;&gt;ServiceRecord -->
<g id="edge10" class="edge">
<title>Problem&#45;&gt;ServiceRecord</title>
<path fill="none" stroke="#526477" d="M507.5,-710.7C507.5,-694.2 507.5,-677.01 507.5,-660.44"/>
<polygon fill="#526477" stroke="#526477" points="511,-660.21 507.5,-650.21 504,-660.21 511,-660.21"/>
<text text-anchor="middle" x="573.5" y="-678" font-family="Helvetica,sans-Serif" font-size="10.00">resolvedByService / to&#45;one</text>
</g>
<!-- DiagnosticRule -->
<g id="node9" class="node">
<title>DiagnosticRule</title>
<path fill="#f4f7fb" stroke="#176b87" d="M838,-383C838,-383 709,-383 709,-383 703,-383 697,-377 697,-371 697,-371 697,-264 697,-264 697,-258 703,-252 709,-252 709,-252 838,-252 838,-252 844,-252 850,-258 850,-264 850,-264 850,-371 850,-371 850,-377 844,-383 838,-383"/>
<text text-anchor="middle" x="773.5" y="-358.8" font-family="Helvetica,sans-Serif" font-size="14.00">DiagnosticRule</text>
<text text-anchor="middle" x="773.5" y="-343.8" font-family="Helvetica,sans-Serif" font-size="14.00">&#45;&#45;&#45;&#45;&#45;&#45;&#45;&#45;&#45;&#45;&#45;&#45;&#45;&#45;&#45;&#45;&#45;&#45;&#45;&#45;&#45;&#45;&#45;&#45;</text>
<text text-anchor="middle" x="773.5" y="-328.8" font-family="Helvetica,sans-Serif" font-size="14.00">id: Long</text>
<text text-anchor="middle" x="773.5" y="-313.8" font-family="Helvetica,sans-Serif" font-size="14.00">code: String</text>
<text text-anchor="middle" x="773.5" y="-298.8" font-family="Helvetica,sans-Serif" font-size="14.00">phrase: String</text>
<text text-anchor="middle" x="773.5" y="-283.8" font-family="Helvetica,sans-Serif" font-size="14.00">weight: int</text>
<text text-anchor="middle" x="773.5" y="-268.8" font-family="Helvetica,sans-Serif" font-size="14.00">active: boolean</text>
</g>
<!-- DiagnosticRule&#45;&gt;WorkDefinition -->
<g id="edge11" class="edge">
<title>DiagnosticRule&#45;&gt;WorkDefinition</title>
<path fill="none" stroke="#526477" d="M723.25,-251.97C701.59,-224.15 676.02,-191.32 653.14,-161.93"/>
<polygon fill="#526477" stroke="#526477" points="655.66,-159.48 646.76,-153.74 650.14,-163.79 655.66,-159.48"/>
<text text-anchor="middle" x="722" y="-189" font-family="Helvetica,sans-Serif" font-size="10.00">candidate / to&#45;one</text>
</g>
<!-- DiagnosticStrategy -->
<g id="node10" class="node">
<title>DiagnosticStrategy</title>
<path fill="#f4f7fb" stroke="#176b87" d="M1176.5,-597.5C1176.5,-597.5 972.5,-597.5 972.5,-597.5 966.5,-597.5 960.5,-591.5 960.5,-585.5 960.5,-585.5 960.5,-538.5 960.5,-538.5 960.5,-532.5 966.5,-526.5 972.5,-526.5 972.5,-526.5 1176.5,-526.5 1176.5,-526.5 1182.5,-526.5 1188.5,-532.5 1188.5,-538.5 1188.5,-538.5 1188.5,-585.5 1188.5,-585.5 1188.5,-591.5 1182.5,-597.5 1176.5,-597.5"/>
<text text-anchor="middle" x="1074.5" y="-573.3" font-family="Helvetica,sans-Serif" font-size="14.00">&lt;&lt;interface&gt;&gt;</text>
<text text-anchor="middle" x="1074.5" y="-558.3" font-family="Helvetica,sans-Serif" font-size="14.00">DiagnosticStrategy</text>
<text text-anchor="middle" x="1074.5" y="-543.3" font-family="Helvetica,sans-Serif" font-size="14.00">+ analyze(description, rules)</text>
</g>
<!-- KeywordDiagnosticStrategy -->
<g id="node11" class="node">
<title>KeywordDiagnosticStrategy</title>
<path fill="#f4f7fb" stroke="#176b87" d="M1171,-834.5C1171,-834.5 978,-834.5 978,-834.5 972,-834.5 966,-828.5 966,-822.5 966,-822.5 966,-790.5 966,-790.5 966,-784.5 972,-778.5 978,-778.5 978,-778.5 1171,-778.5 1171,-778.5 1177,-778.5 1183,-784.5 1183,-790.5 1183,-790.5 1183,-822.5 1183,-822.5 1183,-828.5 1177,-834.5 1171,-834.5"/>
<text text-anchor="middle" x="1074.5" y="-810.3" font-family="Helvetica,sans-Serif" font-size="14.00">KeywordDiagnosticStrategy</text>
<text text-anchor="middle" x="1074.5" y="-795.3" font-family="Helvetica,sans-Serif" font-size="14.00">normalizacija / bodovanje</text>
</g>
<!-- KeywordDiagnosticStrategy&#45;&gt;DiagnosticStrategy -->
<g id="edge13" class="edge">
<title>KeywordDiagnosticStrategy&#45;&gt;DiagnosticStrategy</title>
<path fill="none" stroke="#526477" stroke-dasharray="5,2" d="M1074.5,-778.15C1074.5,-736.75 1074.5,-657.72 1074.5,-607.83"/>
<polygon fill="none" stroke="#526477" points="1078,-607.65 1074.5,-597.65 1071,-607.65 1078,-607.65"/>
<text text-anchor="middle" x="1104" y="-678" font-family="Helvetica,sans-Serif" font-size="10.00">implements</text>
</g>
</g>
</svg>
