<?xml version="1.0" encoding="UTF-8" standalone="no"?>
<!DOCTYPE svg PUBLIC "-//W3C//DTD SVG 1.1//EN"
 "http://www.w3.org/Graphics/SVG/1.1/DTD/svg11.dtd">
<!-- Generated by graphviz version 2.42.4 (0)
 -->
<!-- Title: G Pages: 1 -->
<svg width="1953pt" height="263pt"
 viewBox="0.00 0.00 1953.00 263.00" xmlns="http://www.w3.org/2000/svg" xmlns:xlink="http://www.w3.org/1999/xlink">
<g id="graph0" class="graph" transform="scale(1 1) rotate(0) translate(4 259)">
<title>G</title>
<polygon fill="white" stroke="transparent" points="-4,4 -4,-259 1949,-259 1949,4 -4,4"/>
<text text-anchor="middle" x="972.5" y="-236.6" font-family="Arial" font-size="18.00">AutoCare &#45; finalna persistentna domena</text>
<!-- AppUser -->
<g id="node1" class="node">
<title>AppUser</title>
<path fill="#f3f6fa" stroke="#1f6f9d" d="M12,-71.5C12,-71.5 225,-71.5 225,-71.5 231,-71.5 237,-77.5 237,-83.5 237,-83.5 237,-127.5 237,-127.5 237,-133.5 231,-139.5 225,-139.5 225,-139.5 12,-139.5 12,-139.5 6,-139.5 0,-133.5 0,-127.5 0,-127.5 0,-83.5 0,-83.5 0,-77.5 6,-71.5 12,-71.5"/>
<text text-anchor="middle" x="29.5" y="-102.7" font-family="Arial" font-size="11.00">AppUser</text>
<polyline fill="none" stroke="#1f6f9d" points="59,-71.5 59,-139.5 "/>
<text text-anchor="start" x="67" y="-126.7" font-family="Arial" font-size="11.00">id</text>
<text text-anchor="start" x="67" y="-114.7" font-family="Arial" font-size="11.00">name</text>
<text text-anchor="start" x="67" y="-102.7" font-family="Arial" font-size="11.00">email</text>
<text text-anchor="start" x="67" y="-90.7" font-family="Arial" font-size="11.00">password</text>
<text text-anchor="start" x="67" y="-78.7" font-family="Arial" font-size="11.00">activeVehicle</text>
<polyline fill="none" stroke="#1f6f9d" points="138,-71.5 138,-139.5 "/>
<text text-anchor="start" x="146" y="-108.7" font-family="Arial" font-size="11.00">activate(vehicle)</text>
<text text-anchor="start" x="146" y="-96.7" font-family="Arial" font-size="11.00">changeProfile(...)</text>
</g>
<!-- Vehicle -->
<g id="node2" class="node">
<title>Vehicle</title>
<path fill="#f3f6fa" stroke="#1f6f9d" d="M357,-83.5C357,-83.5 582,-83.5 582,-83.5 588,-83.5 594,-89.5 594,-95.5 594,-95.5 594,-115.5 594,-115.5 594,-121.5 588,-127.5 582,-127.5 582,-127.5 357,-127.5 357,-127.5 351,-127.5 345,-121.5 345,-115.5 345,-115.5 345,-95.5 345,-95.5 345,-89.5 351,-83.5 357,-83.5"/>
<text text-anchor="middle" x="370.5" y="-102.7" font-family="Arial" font-size="11.00">Vehicle</text>
<polyline fill="none" stroke="#1f6f9d" points="396,-83.5 396,-127.5 "/>
<text text-anchor="start" x="404" y="-114.7" font-family="Arial" font-size="11.00">id</text>
<text text-anchor="start" x="404" y="-102.7" font-family="Arial" font-size="11.00">productionYear</text>
<text text-anchor="start" x="404" y="-90.7" font-family="Arial" font-size="11.00">currentMileage</text>
<polyline fill="none" stroke="#1f6f9d" points="485,-83.5 485,-127.5 "/>
<text text-anchor="start" x="493" y="-102.7" font-family="Arial" font-size="11.00">updateMileage(km)</text>
</g>
<!-- AppUser&#45;&gt;Vehicle -->
<g id="edge1" class="edge">
<title>AppUser&#45;&gt;Vehicle</title>
<path fill="none" stroke="#4b6475" d="M237.17,-105.5C268.42,-105.5 302.4,-105.5 334.45,-105.5"/>
<polygon fill="#4b6475" stroke="#4b6475" points="334.78,-109 344.78,-105.5 334.78,-102 334.78,-109"/>
<text text-anchor="middle" x="291" y="-108.3" font-family="Arial" font-size="9.00">owns 1..*</text>
</g>
<!-- AppUser&#45;&gt;Vehicle -->
<g id="edge2" class="edge">
<title>AppUser&#45;&gt;Vehicle</title>
<path fill="none" stroke="#4b6475" stroke-dasharray="5,2" d="M237.32,-92.59C243.29,-92.17 249.21,-91.8 255,-91.5 286.96,-89.85 295.04,-89.92 327,-91.5 329.53,-91.63 332.09,-91.76 334.67,-91.91"/>
<polygon fill="#4b6475" stroke="#4b6475" points="334.5,-95.41 344.7,-92.54 334.93,-88.42 334.5,-95.41"/>
<text text-anchor="middle" x="291" y="-94.3" font-family="Arial" font-size="9.00">activeVehicle 0..1</text>
</g>
<!-- Variant -->
<g id="node3" class="node">
<title>Variant</title>
<path fill="#f3f6fa" stroke="#1f6f9d" d="M709.5,-134.5C709.5,-134.5 845.5,-134.5 845.5,-134.5 851.5,-134.5 857.5,-140.5 857.5,-146.5 857.5,-146.5 857.5,-214.5 857.5,-214.5 857.5,-220.5 851.5,-226.5 845.5,-226.5 845.5,-226.5 709.5,-226.5 709.5,-226.5 703.5,-226.5 697.5,-220.5 697.5,-214.5 697.5,-214.5 697.5,-146.5 697.5,-146.5 697.5,-140.5 703.5,-134.5 709.5,-134.5"/>
<text text-anchor="middle" x="740" y="-177.7" font-family="Arial" font-size="11.00">VehicleVariant</text>
<polyline fill="none" stroke="#1f6f9d" points="782.5,-134.5 782.5,-226.5 "/>
<text text-anchor="start" x="790.5" y="-213.7" font-family="Arial" font-size="11.00">id</text>
<text text-anchor="start" x="790.5" y="-201.7" font-family="Arial" font-size="11.00">code</text>
<text text-anchor="start" x="790.5" y="-189.7" font-family="Arial" font-size="11.00">make</text>
<text text-anchor="start" x="790.5" y="-177.7" font-family="Arial" font-size="11.00">model</text>
<text text-anchor="start" x="790.5" y="-165.7" font-family="Arial" font-size="11.00">generation</text>
<text text-anchor="start" x="790.5" y="-153.7" font-family="Arial" font-size="11.00">engineLabel</text>
<text text-anchor="start" x="790.5" y="-141.7" font-family="Arial" font-size="11.00">priceClass</text>
</g>
<!-- Vehicle&#45;&gt;Variant -->
<g id="edge3" class="edge">
<title>Vehicle&#45;&gt;Variant</title>
<path fill="none" stroke="#4b6475" d="M560.66,-127.6C600.72,-137.42 647.74,-148.94 687.65,-158.72"/>
<polygon fill="#4b6475" stroke="#4b6475" points="686.83,-162.13 697.37,-161.11 688.49,-155.33 686.83,-162.13"/>
<text text-anchor="middle" x="631.5" y="-152.3" font-family="Arial" font-size="9.00">variant 1</text>
</g>
<!-- Service -->
<g id="node6" class="node">
<title>Service</title>
<path fill="#f3f6fa" stroke="#1f6f9d" d="M998,-41.5C998,-41.5 1208,-41.5 1208,-41.5 1214,-41.5 1220,-47.5 1220,-53.5 1220,-53.5 1220,-85.5 1220,-85.5 1220,-91.5 1214,-97.5 1208,-97.5 1208,-97.5 998,-97.5 998,-97.5 992,-97.5 986,-91.5 986,-85.5 986,-85.5 986,-53.5 986,-53.5 986,-47.5 992,-41.5 998,-41.5"/>
<text text-anchor="middle" x="1030" y="-66.7" font-family="Arial" font-size="11.00">ServiceRecord</text>
<polyline fill="none" stroke="#1f6f9d" points="1074,-41.5 1074,-97.5 "/>
<text text-anchor="start" x="1082" y="-84.7" font-family="Arial" font-size="11.00">id</text>
<text text-anchor="start" x="1082" y="-72.7" font-family="Arial" font-size="11.00">serviceDate</text>
<text text-anchor="start" x="1082" y="-60.7" font-family="Arial" font-size="11.00">mileage</text>
<text text-anchor="start" x="1082" y="-48.7" font-family="Arial" font-size="11.00">note</text>
<polyline fill="none" stroke="#1f6f9d" points="1148,-41.5 1148,-97.5 "/>
<text text-anchor="start" x="1156" y="-72.7" font-family="Arial" font-size="11.00">addItem(...)</text>
<text text-anchor="start" x="1156" y="-60.7" font-family="Arial" font-size="11.00">total()</text>
</g>
<!-- Vehicle&#45;&gt;Service -->
<g id="edge4" class="edge">
<title>Vehicle&#45;&gt;Service</title>
<path fill="none" stroke="#4b6475" d="M594.13,-98.45C704.25,-92.17 864.66,-83.03 975.61,-76.71"/>
<polygon fill="#4b6475" stroke="#4b6475" points="976.07,-80.18 985.85,-76.12 975.67,-73.2 976.07,-80.18"/>
<text text-anchor="middle" x="777.5" y="-97.3" font-family="Arial" font-size="9.00">history 0..*</text>
</g>
<!-- Problem -->
<g id="node8" class="node">
<title>Problem</title>
<path fill="#f3f6fa" stroke="#1f6f9d" d="M681,-0.5C681,-0.5 874,-0.5 874,-0.5 880,-0.5 886,-6.5 886,-12.5 886,-12.5 886,-56.5 886,-56.5 886,-62.5 880,-68.5 874,-68.5 874,-68.5 681,-68.5 681,-68.5 675,-68.5 669,-62.5 669,-56.5 669,-56.5 669,-12.5 669,-12.5 669,-6.5 675,-0.5 681,-0.5"/>
<text text-anchor="middle" x="697.5" y="-31.7" font-family="Arial" font-size="11.00">Problem</text>
<polyline fill="none" stroke="#1f6f9d" points="726,-0.5 726,-68.5 "/>
<text text-anchor="start" x="734" y="-55.7" font-family="Arial" font-size="11.00">id</text>
<text text-anchor="start" x="734" y="-43.7" font-family="Arial" font-size="11.00">description</text>
<text text-anchor="start" x="734" y="-31.7" font-family="Arial" font-size="11.00">category</text>
<text text-anchor="start" x="734" y="-19.7" font-family="Arial" font-size="11.00">status</text>
<text text-anchor="start" x="734" y="-7.7" font-family="Arial" font-size="11.00">createdAt</text>
<polyline fill="none" stroke="#1f6f9d" points="794,-0.5 794,-68.5 "/>
<text text-anchor="start" x="802" y="-37.7" font-family="Arial" font-size="11.00">close()</text>
<text text-anchor="start" x="802" y="-25.7" font-family="Arial" font-size="11.00">resolve(service)</text>
</g>
<!-- Vehicle&#45;&gt;Problem -->
<g id="edge8" class="edge">
<title>Vehicle&#45;&gt;Problem</title>
<path fill="none" stroke="#4b6475" d="M565.64,-83.42C595.17,-76.57 628.06,-68.94 658.92,-61.78"/>
<polygon fill="#4b6475" stroke="#4b6475" points="659.92,-65.14 668.87,-59.47 658.33,-58.32 659.92,-65.14"/>
<text text-anchor="middle" x="631.5" y="-75.3" font-family="Arial" font-size="9.00">notes 0..*</text>
</g>
<!-- Work -->
<g id="node4" class="node">
<title>Work</title>
<path fill="#f3f6fa" stroke="#1f6f9d" d="M1514,-23.5C1514,-23.5 1672,-23.5 1672,-23.5 1678,-23.5 1684,-29.5 1684,-35.5 1684,-35.5 1684,-103.5 1684,-103.5 1684,-109.5 1678,-115.5 1672,-115.5 1672,-115.5 1514,-115.5 1514,-115.5 1508,-115.5 1502,-109.5 1502,-103.5 1502,-103.5 1502,-35.5 1502,-35.5 1502,-29.5 1508,-23.5 1514,-23.5"/>
<text text-anchor="middle" x="1545.5" y="-66.7" font-family="Arial" font-size="11.00">WorkDefinition</text>
<polyline fill="none" stroke="#1f6f9d" points="1589,-23.5 1589,-115.5 "/>
<text text-anchor="start" x="1597" y="-102.7" font-family="Arial" font-size="11.00">id</text>
<text text-anchor="start" x="1597" y="-90.7" font-family="Arial" font-size="11.00">code</text>
<text text-anchor="start" x="1597" y="-78.7" font-family="Arial" font-size="11.00">name</text>
<text text-anchor="start" x="1597" y="-66.7" font-family="Arial" font-size="11.00">category</text>
<text text-anchor="start" x="1597" y="-54.7" font-family="Arial" font-size="11.00">catalogCategory</text>
<text text-anchor="start" x="1597" y="-42.7" font-family="Arial" font-size="11.00">intervalKm</text>
<text text-anchor="start" x="1597" y="-30.7" font-family="Arial" font-size="11.00">intervalMonths</text>
</g>
<!-- Price -->
<g id="node5" class="node">
<title>Price</title>
<path fill="#f3f6fa" stroke="#1f6f9d" d="M1791,-41.5C1791,-41.5 1933,-41.5 1933,-41.5 1939,-41.5 1945,-47.5 1945,-53.5 1945,-53.5 1945,-85.5 1945,-85.5 1945,-91.5 1939,-97.5 1933,-97.5 1933,-97.5 1791,-97.5 1791,-97.5 1785,-97.5 1779,-91.5 1779,-85.5 1779,-85.5 1779,-53.5 1779,-53.5 1779,-47.5 1785,-41.5 1791,-41.5"/>
<text text-anchor="middle" x="1828.5" y="-66.7" font-family="Arial" font-size="11.00">WorkPriceRange</text>
<polyline fill="none" stroke="#1f6f9d" points="1878,-41.5 1878,-97.5 "/>
<text text-anchor="start" x="1886" y="-84.7" font-family="Arial" font-size="11.00">id</text>
<text text-anchor="start" x="1886" y="-72.7" font-family="Arial" font-size="11.00">priceClass</text>
<text text-anchor="start" x="1886" y="-60.7" font-family="Arial" font-size="11.00">minPrice</text>
<text text-anchor="start" x="1886" y="-48.7" font-family="Arial" font-size="11.00">maxPrice</text>
</g>
<!-- Work&#45;&gt;Price -->
<g id="edge7" class="edge">
<title>Work&#45;&gt;Price</title>
<path fill="none" stroke="#4b6475" d="M1684.02,-69.5C1711.14,-69.5 1740.94,-69.5 1768.23,-69.5"/>
<polygon fill="#4b6475" stroke="#4b6475" points="1768.56,-73 1778.56,-69.5 1768.56,-66 1768.56,-73"/>
<text text-anchor="middle" x="1731.5" y="-72.3" font-family="Arial" font-size="9.00">price ranges 5</text>
</g>
<!-- Item -->
<g id="node7" class="node">
<title>Item</title>
<path fill="#f3f6fa" stroke="#1f6f9d" d="M1306,-51.5C1306,-51.5 1426,-51.5 1426,-51.5 1432,-51.5 1438,-57.5 1438,-63.5 1438,-63.5 1438,-75.5 1438,-75.5 1438,-81.5 1432,-87.5 1426,-87.5 1426,-87.5 1306,-87.5 1306,-87.5 1300,-87.5 1294,-81.5 1294,-75.5 1294,-75.5 1294,-63.5 1294,-63.5 1294,-57.5 1300,-51.5 1306,-51.5"/>
<text text-anchor="middle" x="1331" y="-66.7" font-family="Arial" font-size="11.00">ServiceItem</text>
<polyline fill="none" stroke="#1f6f9d" points="1368,-51.5 1368,-87.5 "/>
<text text-anchor="start" x="1376" y="-72.7" font-family="Arial" font-size="11.00">id</text>
<text text-anchor="start" x="1376" y="-60.7" font-family="Arial" font-size="11.00">actualPrice</text>
</g>
<!-- Service&#45;&gt;Item -->
<g id="edge5" class="edge">
<title>Service&#45;&gt;Item</title>
<path fill="none" stroke="#4b6475" d="M1220.38,-69.5C1240.99,-69.5 1262.09,-69.5 1281.56,-69.5"/>
<polygon fill="#4b6475" stroke="#4b6475" points="1281.78,-69.5 1287.78,-65.5 1293.78,-69.5 1287.78,-73.5 1281.78,-69.5"/>
<text text-anchor="middle" x="1257" y="-72.3" font-family="Arial" font-size="9.00">items 1..*</text>
</g>
<!-- Item&#45;&gt;Work -->
<g id="edge6" class="edge">
<title>Item&#45;&gt;Work</title>
<path fill="none" stroke="#4b6475" d="M1438.19,-69.5C1455.17,-69.5 1473.6,-69.5 1491.61,-69.5"/>
<polygon fill="#4b6475" stroke="#4b6475" points="1491.86,-73 1501.86,-69.5 1491.86,-66 1491.86,-73"/>
<text text-anchor="middle" x="1470" y="-72.3" font-family="Arial" font-size="9.00">work 1</text>
</g>
<!-- Problem&#45;&gt;Service -->
<g id="edge9" class="edge">
<title>Problem&#45;&gt;Service</title>
<path fill="none" stroke="#4b6475" stroke-dasharray="5,2" d="M886.22,-46.15C914.95,-49.26 946.26,-52.65 975.88,-55.86"/>
<polygon fill="#4b6475" stroke="#4b6475" points="975.54,-59.34 985.86,-56.93 976.29,-52.38 975.54,-59.34"/>
<text text-anchor="middle" x="936" y="-57.3" font-family="Arial" font-size="9.00">resolvedBy 0..1</text>
</g>
</g>
</svg>
