<?xml version="1.0" encoding="UTF-8" standalone="no"?>
<!DOCTYPE svg PUBLIC "-//W3C//DTD SVG 1.1//EN"
 "http://www.w3.org/Graphics/SVG/1.1/DTD/svg11.dtd">
<!-- Generated by graphviz version 16.1.0 (20260904.0139)
 -->
<!-- Title: AutoCareErD Pages: 1 -->
<svg width="1039pt" height="798pt"
 viewBox="0.00 0.00 1039.00 798.00" xmlns="http://www.w3.org/2000/svg" xmlns:xlink="http://www.w3.org/1999/xlink">
<g id="graph0" class="graph" transform="scale(1 1) rotate(0) translate(21.6 776.03)">
<title>AutoCareErD</title>
<polygon fill="white" stroke="none" points="-21.6,21.6 -21.6,-776.03 1017.05,-776.03 1017.05,21.6 -21.6,21.6"/>
<text xml:space="preserve" text-anchor="middle" x="497.72" y="-737.13" font-family="Helvetica,sans-Serif" font-size="14.00">AutoCare &#45; aktualni Azure SQL ERD (dbo; snake_case)</text>
<!-- app_user -->
<g id="node1" class="node">
<title>app_user</title>
<path fill="#f4f7fb" stroke="#176b87" d="M308.95,-508.88C308.95,-508.88 95.53,-508.88 95.53,-508.88 89.53,-508.88 83.53,-502.88 83.53,-496.88 83.53,-496.88 83.53,-400.47 83.53,-400.47 83.53,-394.47 89.53,-388.47 95.53,-388.47 95.53,-388.47 308.95,-388.47 308.95,-388.47 314.95,-388.47 320.95,-394.47 320.95,-400.47 320.95,-400.47 320.95,-496.88 320.95,-496.88 320.95,-502.88 314.95,-508.88 308.95,-508.88"/>
<text xml:space="preserve" text-anchor="middle" x="202.24" y="-482.62" font-family="Helvetica,sans-Serif" font-size="14.00">dbo.app_user</text>
<text xml:space="preserve" text-anchor="middle" x="202.24" y="-466.88" font-family="Helvetica,sans-Serif" font-size="14.00">PK id BIGINT IDENTITY</text>
<text xml:space="preserve" text-anchor="middle" x="202.24" y="-451.12" font-family="Helvetica,sans-Serif" font-size="14.00">name NVARCHAR</text>
<text xml:space="preserve" text-anchor="middle" x="202.24" y="-435.38" font-family="Helvetica,sans-Serif" font-size="14.00">UQ email</text>
<text xml:space="preserve" text-anchor="middle" x="202.24" y="-419.62" font-family="Helvetica,sans-Serif" font-size="14.00">password NVARCHAR</text>
<text xml:space="preserve" text-anchor="middle" x="202.24" y="-403.88" font-family="Helvetica,sans-Serif" font-size="14.00">FK active_vehicle_id BIGINT NULL</text>
</g>
<!-- vehicle -->
<g id="node3" class="node">
<title>vehicle</title>
<path fill="#f4f7fb" stroke="#176b87" d="M356.7,-318.59C356.7,-318.59 207.78,-318.59 207.78,-318.59 201.78,-318.59 195.78,-312.59 195.78,-306.59 195.78,-306.59 195.78,-210.17 195.78,-210.17 195.78,-204.17 201.78,-198.17 207.78,-198.17 207.78,-198.17 356.7,-198.17 356.7,-198.17 362.7,-198.17 368.7,-204.17 368.7,-210.17 368.7,-210.17 368.7,-306.59 368.7,-306.59 368.7,-312.59 362.7,-318.59 356.7,-318.59"/>
<text xml:space="preserve" text-anchor="middle" x="282.24" y="-292.33" font-family="Helvetica,sans-Serif" font-size="14.00">dbo.vehicle</text>
<text xml:space="preserve" text-anchor="middle" x="282.24" y="-276.58" font-family="Helvetica,sans-Serif" font-size="14.00">PK id BIGINT IDENTITY</text>
<text xml:space="preserve" text-anchor="middle" x="282.24" y="-260.83" font-family="Helvetica,sans-Serif" font-size="14.00">FK owner_id BIGINT</text>
<text xml:space="preserve" text-anchor="middle" x="282.24" y="-245.08" font-family="Helvetica,sans-Serif" font-size="14.00">FK variant_id BIGINT</text>
<text xml:space="preserve" text-anchor="middle" x="282.24" y="-229.33" font-family="Helvetica,sans-Serif" font-size="14.00">production_year INT</text>
<text xml:space="preserve" text-anchor="middle" x="282.24" y="-213.58" font-family="Helvetica,sans-Serif" font-size="14.00">current_mileage INT</text>
</g>
<!-- app_user&#45;&gt;vehicle -->
<g id="edge1" class="edge">
<title>app_user&#45;&gt;vehicle</title>
<path fill="none" stroke="#526477" d="M228.19,-388.29C232.9,-377.43 237.74,-366.18 242.24,-355.59 245.81,-347.19 249.53,-338.36 253.19,-329.6"/>
<polygon fill="#526477" stroke="#526477" points="256.42,-330.95 257.05,-320.37 249.96,-328.25 256.42,-330.95"/>
<text xml:space="preserve" text-anchor="middle" x="284.14" y="-346.09" font-family="Helvetica,sans-Serif" font-size="10.00">active_vehicle_id</text>
</g>
<!-- vehicle_variant -->
<g id="node2" class="node">
<title>vehicle_variant</title>
<path fill="#f4f7fb" stroke="#176b87" d="M709.45,-136.17C709.45,-136.17 499.03,-136.17 499.03,-136.17 493.03,-136.17 487.03,-130.17 487.03,-124.17 487.03,-124.17 487.03,-12 487.03,-12 487.03,-6 493.03,0 499.03,0 499.03,0 709.45,0 709.45,0 715.45,0 721.45,-6 721.45,-12 721.45,-12 721.45,-124.17 721.45,-124.17 721.45,-130.17 715.45,-136.17 709.45,-136.17"/>
<text xml:space="preserve" text-anchor="middle" x="604.24" y="-109.91" font-family="Helvetica,sans-Serif" font-size="14.00">dbo.vehicle_variant</text>
<text xml:space="preserve" text-anchor="middle" x="604.24" y="-94.16" font-family="Helvetica,sans-Serif" font-size="14.00">PK id BIGINT IDENTITY</text>
<text xml:space="preserve" text-anchor="middle" x="604.24" y="-78.41" font-family="Helvetica,sans-Serif" font-size="14.00">UQ code</text>
<text xml:space="preserve" text-anchor="middle" x="604.24" y="-62.66" font-family="Helvetica,sans-Serif" font-size="14.00">make, model, generation</text>
<text xml:space="preserve" text-anchor="middle" x="604.24" y="-46.91" font-family="Helvetica,sans-Serif" font-size="14.00">engine_label, body_type, fuel_type</text>
<text xml:space="preserve" text-anchor="middle" x="604.24" y="-31.16" font-family="Helvetica,sans-Serif" font-size="14.00">power_hp, transmission</text>
<text xml:space="preserve" text-anchor="middle" x="604.24" y="-15.41" font-family="Helvetica,sans-Serif" font-size="14.00">year_from, year_to</text>
</g>
<!-- vehicle&#45;&gt;app_user -->
<g id="edge2" class="edge">
<title>vehicle&#45;&gt;app_user</title>
<path fill="none" stroke="#526477" d="M209.06,-318.86C203.12,-326.56 197.97,-334.84 194.24,-343.59 189.83,-353.9 188.02,-365.31 187.81,-376.68"/>
<polygon fill="#526477" stroke="#526477" points="184.31,-376.58 188.06,-386.49 191.31,-376.4 184.31,-376.58"/>
<text xml:space="preserve" text-anchor="middle" x="213.74" y="-346.09" font-family="Helvetica,sans-Serif" font-size="10.00">owner_id</text>
</g>
<!-- vehicle&#45;&gt;vehicle_variant -->
<g id="edge3" class="edge">
<title>vehicle&#45;&gt;vehicle_variant</title>
<path fill="none" stroke="#526477" d="M368.95,-206.67C402.81,-186.87 442.28,-163.79 479.11,-142.26"/>
<polygon fill="#526477" stroke="#526477" points="480.74,-145.36 487.61,-137.29 477.21,-139.31 480.74,-145.36"/>
<text xml:space="preserve" text-anchor="middle" x="464.24" y="-163.67" font-family="Helvetica,sans-Serif" font-size="10.00">variant_id</text>
</g>
<!-- work_definition -->
<g id="node4" class="node">
<title>work_definition</title>
<path fill="#f4f7fb" stroke="#176b87" d="M746.45,-516.76C746.45,-516.76 578.03,-516.76 578.03,-516.76 572.03,-516.76 566.03,-510.76 566.03,-504.76 566.03,-504.76 566.03,-392.59 566.03,-392.59 566.03,-386.59 572.03,-380.59 578.03,-380.59 578.03,-380.59 746.45,-380.59 746.45,-380.59 752.45,-380.59 758.45,-386.59 758.45,-392.59 758.45,-392.59 758.45,-504.76 758.45,-504.76 758.45,-510.76 752.45,-516.76 746.45,-516.76"/>
<text xml:space="preserve" text-anchor="middle" x="662.24" y="-490.5" font-family="Helvetica,sans-Serif" font-size="14.00">dbo.work_definition</text>
<text xml:space="preserve" text-anchor="middle" x="662.24" y="-474.75" font-family="Helvetica,sans-Serif" font-size="14.00">PK id BIGINT IDENTITY</text>
<text xml:space="preserve" text-anchor="middle" x="662.24" y="-459" font-family="Helvetica,sans-Serif" font-size="14.00">UQ code</text>
<text xml:space="preserve" text-anchor="middle" x="662.24" y="-443.25" font-family="Helvetica,sans-Serif" font-size="14.00">name, category</text>
<text xml:space="preserve" text-anchor="middle" x="662.24" y="-427.5" font-family="Helvetica,sans-Serif" font-size="14.00">default_interval_km/months</text>
<text xml:space="preserve" text-anchor="middle" x="662.24" y="-411.75" font-family="Helvetica,sans-Serif" font-size="14.00">default_estimated_price</text>
<text xml:space="preserve" text-anchor="middle" x="662.24" y="-396" font-family="Helvetica,sans-Serif" font-size="14.00">estimate_note</text>
</g>
<!-- vehicle_work_rule -->
<g id="node5" class="node">
<title>vehicle_work_rule</title>
<path fill="#f4f7fb" stroke="#176b87" d="M983.45,-714.93C983.45,-714.93 797.03,-714.93 797.03,-714.93 791.03,-714.93 785.03,-708.93 785.03,-702.93 785.03,-702.93 785.03,-606.51 785.03,-606.51 785.03,-600.51 791.03,-594.51 797.03,-594.51 797.03,-594.51 983.45,-594.51 983.45,-594.51 989.45,-594.51 995.45,-600.51 995.45,-606.51 995.45,-606.51 995.45,-702.93 995.45,-702.93 995.45,-708.93 989.45,-714.93 983.45,-714.93"/>
<text xml:space="preserve" text-anchor="middle" x="890.24" y="-688.67" font-family="Helvetica,sans-Serif" font-size="14.00">dbo.vehicle_work_rule</text>
<text xml:space="preserve" text-anchor="middle" x="890.24" y="-672.92" font-family="Helvetica,sans-Serif" font-size="14.00">PK id BIGINT IDENTITY</text>
<text xml:space="preserve" text-anchor="middle" x="890.24" y="-657.17" font-family="Helvetica,sans-Serif" font-size="14.00">FK variant_id, work_id</text>
<text xml:space="preserve" text-anchor="middle" x="890.24" y="-641.42" font-family="Helvetica,sans-Serif" font-size="14.00">interval_km/months</text>
<text xml:space="preserve" text-anchor="middle" x="890.24" y="-625.67" font-family="Helvetica,sans-Serif" font-size="14.00">estimated_price</text>
<text xml:space="preserve" text-anchor="middle" x="890.24" y="-609.92" font-family="Helvetica,sans-Serif" font-size="14.00">interval_source, estimate_note</text>
</g>
<!-- vehicle_work_rule&#45;&gt;vehicle_variant -->
<g id="edge4" class="edge">
<title>vehicle_work_rule&#45;&gt;vehicle_variant</title>
<path fill="none" stroke="#526477" d="M867.49,-594.02C845.69,-538.13 811.04,-452.65 776.24,-380.59 736.83,-299.01 686.13,-208.67 650,-146.38"/>
<polygon fill="#526477" stroke="#526477" points="653.15,-144.82 645.09,-137.94 647.1,-148.34 653.15,-144.82"/>
<text xml:space="preserve" text-anchor="middle" x="784.18" y="-346.09" font-family="Helvetica,sans-Serif" font-size="10.00">variant_id</text>
</g>
<!-- vehicle_work_rule&#45;&gt;work_definition -->
<g id="edge5" class="edge">
<title>vehicle_work_rule&#45;&gt;work_definition</title>
<path fill="none" stroke="#526477" d="M823.68,-594.15C799.47,-572.49 771.79,-547.71 746.26,-524.87"/>
<polygon fill="#526477" stroke="#526477" points="748.61,-522.28 738.82,-518.22 743.94,-527.49 748.61,-522.28"/>
<text xml:space="preserve" text-anchor="middle" x="793.11" y="-544.26" font-family="Helvetica,sans-Serif" font-size="10.00">work_id</text>
</g>
<!-- service_record -->
<g id="node6" class="node">
<title>service_record</title>
<path fill="#f4f7fb" stroke="#176b87" d="M517.7,-508.88C517.7,-508.88 368.78,-508.88 368.78,-508.88 362.78,-508.88 356.78,-502.88 356.78,-496.88 356.78,-496.88 356.78,-400.47 356.78,-400.47 356.78,-394.47 362.78,-388.47 368.78,-388.47 368.78,-388.47 517.7,-388.47 517.7,-388.47 523.7,-388.47 529.7,-394.47 529.7,-400.47 529.7,-400.47 529.7,-496.88 529.7,-496.88 529.7,-502.88 523.7,-508.88 517.7,-508.88"/>
<text xml:space="preserve" text-anchor="middle" x="443.24" y="-482.62" font-family="Helvetica,sans-Serif" font-size="14.00">dbo.service_record</text>
<text xml:space="preserve" text-anchor="middle" x="443.24" y="-466.88" font-family="Helvetica,sans-Serif" font-size="14.00">PK id BIGINT IDENTITY</text>
<text xml:space="preserve" text-anchor="middle" x="443.24" y="-451.12" font-family="Helvetica,sans-Serif" font-size="14.00">FK vehicle_id</text>
<text xml:space="preserve" text-anchor="middle" x="443.24" y="-435.38" font-family="Helvetica,sans-Serif" font-size="14.00">service_date DATE</text>
<text xml:space="preserve" text-anchor="middle" x="443.24" y="-419.62" font-family="Helvetica,sans-Serif" font-size="14.00">mileage INT</text>
<text xml:space="preserve" text-anchor="middle" x="443.24" y="-403.88" font-family="Helvetica,sans-Serif" font-size="14.00">note NVARCHAR NULL</text>
</g>
<!-- service_record&#45;&gt;vehicle -->
<g id="edge6" class="edge">
<title>service_record&#45;&gt;vehicle</title>
<path fill="none" stroke="#526477" d="M392.29,-388.1C375.84,-368.86 357.48,-347.38 340.54,-327.57"/>
<polygon fill="#526477" stroke="#526477" points="343.26,-325.37 334.11,-320.04 337.94,-329.92 343.26,-325.37"/>
<text xml:space="preserve" text-anchor="middle" x="384.49" y="-346.09" font-family="Helvetica,sans-Serif" font-size="10.00">vehicle_id</text>
</g>
<!-- service_item -->
<g id="node7" class="node">
<title>service_item</title>
<path fill="#f4f7fb" stroke="#176b87" d="M527.82,-707.06C527.82,-707.06 322.65,-707.06 322.65,-707.06 316.65,-707.06 310.65,-701.06 310.65,-695.06 310.65,-695.06 310.65,-614.38 310.65,-614.38 310.65,-608.38 316.65,-602.38 322.65,-602.38 322.65,-602.38 527.82,-602.38 527.82,-602.38 533.82,-602.38 539.82,-608.38 539.82,-614.38 539.82,-614.38 539.82,-695.06 539.82,-695.06 539.82,-701.06 533.82,-707.06 527.82,-707.06"/>
<text xml:space="preserve" text-anchor="middle" x="425.24" y="-680.8" font-family="Helvetica,sans-Serif" font-size="14.00">dbo.service_item</text>
<text xml:space="preserve" text-anchor="middle" x="425.24" y="-665.05" font-family="Helvetica,sans-Serif" font-size="14.00">PK id BIGINT IDENTITY</text>
<text xml:space="preserve" text-anchor="middle" x="425.24" y="-649.3" font-family="Helvetica,sans-Serif" font-size="14.00">FK service_record_id</text>
<text xml:space="preserve" text-anchor="middle" x="425.24" y="-633.55" font-family="Helvetica,sans-Serif" font-size="14.00">FK work_id</text>
<text xml:space="preserve" text-anchor="middle" x="425.24" y="-617.8" font-family="Helvetica,sans-Serif" font-size="14.00">actual_price DECIMAL(9,2) NULL</text>
</g>
<!-- service_item&#45;&gt;work_definition -->
<g id="edge8" class="edge">
<title>service_item&#45;&gt;work_definition</title>
<path fill="none" stroke="#526477" d="M485.35,-601.97C512.67,-578.44 545.52,-550.16 575.46,-524.39"/>
<polygon fill="#526477" stroke="#526477" points="577.37,-527.36 582.67,-518.18 572.81,-522.05 577.37,-527.36"/>
<text xml:space="preserve" text-anchor="middle" x="567.72" y="-544.26" font-family="Helvetica,sans-Serif" font-size="10.00">work_id</text>
</g>
<!-- service_item&#45;&gt;service_record -->
<g id="edge7" class="edge">
<title>service_item&#45;&gt;service_record</title>
<path fill="none" stroke="#526477" d="M429.8,-601.97C431.98,-577.28 434.62,-547.35 436.98,-520.58"/>
<polygon fill="#526477" stroke="#526477" points="440.45,-521.1 437.84,-510.83 433.48,-520.49 440.45,-521.1"/>
<text xml:space="preserve" text-anchor="middle" x="473.03" y="-544.26" font-family="Helvetica,sans-Serif" font-size="10.00">service_record_id</text>
</g>
<!-- problem -->
<g id="node8" class="node">
<title>problem</title>
<path fill="#f4f7fb" stroke="#176b87" d="M262.7,-730.68C262.7,-730.68 71.78,-730.68 71.78,-730.68 65.78,-730.68 59.78,-724.68 59.78,-718.68 59.78,-718.68 59.78,-590.76 59.78,-590.76 59.78,-584.76 65.78,-578.76 71.78,-578.76 71.78,-578.76 262.7,-578.76 262.7,-578.76 268.7,-578.76 274.7,-584.76 274.7,-590.76 274.7,-590.76 274.7,-718.68 274.7,-718.68 274.7,-724.68 268.7,-730.68 262.7,-730.68"/>
<text xml:space="preserve" text-anchor="middle" x="167.24" y="-704.42" font-family="Helvetica,sans-Serif" font-size="14.00">dbo.problem</text>
<text xml:space="preserve" text-anchor="middle" x="167.24" y="-688.67" font-family="Helvetica,sans-Serif" font-size="14.00">PK id BIGINT IDENTITY</text>
<text xml:space="preserve" text-anchor="middle" x="167.24" y="-672.92" font-family="Helvetica,sans-Serif" font-size="14.00">FK vehicle_id</text>
<text xml:space="preserve" text-anchor="middle" x="167.24" y="-657.17" font-family="Helvetica,sans-Serif" font-size="14.00">description, status</text>
<text xml:space="preserve" text-anchor="middle" x="167.24" y="-641.42" font-family="Helvetica,sans-Serif" font-size="14.00">created_at DATETIME2</text>
<text xml:space="preserve" text-anchor="middle" x="167.24" y="-625.67" font-family="Helvetica,sans-Serif" font-size="14.00">optional repair/resolve FKs</text>
<text xml:space="preserve" text-anchor="middle" x="167.24" y="-609.92" font-family="Helvetica,sans-Serif" font-size="14.00">match_percent, estimated_cost</text>
<text xml:space="preserve" text-anchor="middle" x="167.24" y="-594.17" font-family="Helvetica,sans-Serif" font-size="14.00">estimate_note</text>
</g>
<!-- problem&#45;&gt;vehicle -->
<g id="edge9" class="edge">
<title>problem&#45;&gt;vehicle</title>
<path fill="none" stroke="#526477" d="M64.78,-578.32C47.27,-560.26 31.57,-539.53 21.74,-516.76 -2.27,-461.2 -10.8,-431.62 21.74,-380.59 57.39,-324.68 126.25,-294.15 184.23,-277.72"/>
<polygon fill="#526477" stroke="#526477" points="185.1,-281.11 193.83,-275.11 183.26,-274.36 185.1,-281.11"/>
<text xml:space="preserve" text-anchor="middle" x="43.49" y="-445.18" font-family="Helvetica,sans-Serif" font-size="10.00">vehicle_id</text>
</g>
<!-- problem&#45;&gt;work_definition -->
<g id="edge10" class="edge">
<title>problem&#45;&gt;work_definition</title>
<path fill="none" stroke="#526477" d="M265.76,-578.33C288.53,-564.07 313.4,-550.81 338.24,-541.76 426.14,-509.74 458.54,-546.5 547.24,-516.76 549.82,-515.89 552.42,-514.96 555.01,-513.98"/>
<polygon fill="#526477" stroke="#526477" points="556.33,-517.22 564.26,-510.2 553.68,-510.74 556.33,-517.22"/>
<text xml:space="preserve" text-anchor="middle" x="381.74" y="-544.26" font-family="Helvetica,sans-Serif" font-size="10.00">suggested_repair_id</text>
</g>
<!-- problem&#45;&gt;service_record -->
<g id="edge11" class="edge">
<title>problem&#45;&gt;service_record</title>
<path fill="none" stroke="#526477" d="M152.34,-578.3C153.43,-564.89 157.39,-551.97 166.24,-541.76 191.66,-512.39 302.86,-530.38 339.24,-516.76 341.48,-515.92 343.72,-515.03 345.96,-514.09"/>
<polygon fill="#526477" stroke="#526477" points="347.36,-517.3 355.02,-509.99 344.47,-510.92 347.36,-517.3"/>
<text xml:space="preserve" text-anchor="middle" x="217.24" y="-544.26" font-family="Helvetica,sans-Serif" font-size="10.00">resolved_by_service_id</text>
</g>
<!-- diagnostic_rule -->
<g id="node9" class="node">
<title>diagnostic_rule</title>
<path fill="#f4f7fb" stroke="#176b87" d="M736.7,-707.06C736.7,-707.06 587.78,-707.06 587.78,-707.06 581.78,-707.06 575.78,-701.06 575.78,-695.06 575.78,-695.06 575.78,-614.38 575.78,-614.38 575.78,-608.38 581.78,-602.38 587.78,-602.38 587.78,-602.38 736.7,-602.38 736.7,-602.38 742.7,-602.38 748.7,-608.38 748.7,-614.38 748.7,-614.38 748.7,-695.06 748.7,-695.06 748.7,-701.06 742.7,-707.06 736.7,-707.06"/>
<text xml:space="preserve" text-anchor="middle" x="662.24" y="-680.8" font-family="Helvetica,sans-Serif" font-size="14.00">dbo.diagnostic_rule</text>
<text xml:space="preserve" text-anchor="middle" x="662.24" y="-665.05" font-family="Helvetica,sans-Serif" font-size="14.00">PK id BIGINT IDENTITY</text>
<text xml:space="preserve" text-anchor="middle" x="662.24" y="-649.3" font-family="Helvetica,sans-Serif" font-size="14.00">UQ code</text>
<text xml:space="preserve" text-anchor="middle" x="662.24" y="-633.55" font-family="Helvetica,sans-Serif" font-size="14.00">FK candidate_id</text>
<text xml:space="preserve" text-anchor="middle" x="662.24" y="-617.8" font-family="Helvetica,sans-Serif" font-size="14.00">phrase, weight, active</text>
</g>
<!-- diagnostic_rule&#45;&gt;work_definition -->
<g id="edge12" class="edge">
<title>diagnostic_rule&#45;&gt;work_definition</title>
<path fill="none" stroke="#526477" d="M662.24,-601.97C662.24,-579.65 662.24,-553.05 662.24,-528.37"/>
<polygon fill="#526477" stroke="#526477" points="665.74,-528.7 662.24,-518.7 658.74,-528.7 665.74,-528.7"/>
<text xml:space="preserve" text-anchor="middle" x="689.61" y="-544.26" font-family="Helvetica,sans-Serif" font-size="10.00">candidate_id</text>
</g>
</g>
</svg>
